<mxfile host="Electron" modified="2024-06-18T02:30:48.338Z" agent="Mozilla/5.0 (Windows NT 10.0; Win64; x64) AppleWebKit/537.36 (KHTML, like Gecko) draw.io/24.5.3 Chrome/124.0.6367.207 Electron/30.0.6 Safari/537.36" etag="uA87RWwa8wYy1lxzZST7" version="24.5.3" type="device">
  <diagram name="Страница — 1" id="8zjGnYn2L2cxz6Pd6IEP">
    <mxGraphModel dx="1920" dy="2101" grid="1" gridSize="10" guides="1" tooltips="1" connect="1" arrows="1" fold="1" page="1" pageScale="1" pageWidth="827" pageHeight="1169" math="0" shadow="0">
      <root>
        <mxCell id="0" />
        <mxCell id="1" parent="0" />
        <mxCell id="Lw8miHaZWjdqbxg_3rgK-11" style="edgeStyle=orthogonalEdgeStyle;rounded=0;orthogonalLoop=1;jettySize=auto;html=1;entryX=0;entryY=0.5;entryDx=0;entryDy=0;" edge="1" parent="1" source="Lw8miHaZWjdqbxg_3rgK-3" target="Lw8miHaZWjdqbxg_3rgK-172">
          <mxGeometry relative="1" as="geometry">
            <mxPoint x="690" y="-180" as="targetPoint" />
          </mxGeometry>
        </mxCell>
        <mxCell id="Lw8miHaZWjdqbxg_3rgK-13" value="has_many" style="edgeLabel;html=1;align=center;verticalAlign=middle;resizable=0;points=[];" vertex="1" connectable="0" parent="Lw8miHaZWjdqbxg_3rgK-11">
          <mxGeometry x="-0.0308" y="-1" relative="1" as="geometry">
            <mxPoint as="offset" />
          </mxGeometry>
        </mxCell>
        <mxCell id="Lw8miHaZWjdqbxg_3rgK-20" value="" style="edgeStyle=orthogonalEdgeStyle;rounded=0;orthogonalLoop=1;jettySize=auto;html=1;" edge="1" parent="1" source="Lw8miHaZWjdqbxg_3rgK-3" target="Lw8miHaZWjdqbxg_3rgK-15">
          <mxGeometry relative="1" as="geometry" />
        </mxCell>
        <mxCell id="Lw8miHaZWjdqbxg_3rgK-21" value="has_one" style="edgeLabel;html=1;align=center;verticalAlign=middle;resizable=0;points=[];" vertex="1" connectable="0" parent="Lw8miHaZWjdqbxg_3rgK-20">
          <mxGeometry x="-0.14" y="-3" relative="1" as="geometry">
            <mxPoint as="offset" />
          </mxGeometry>
        </mxCell>
        <mxCell id="Lw8miHaZWjdqbxg_3rgK-3" value="Заказ" style="rounded=0;whiteSpace=wrap;html=1;fillColor=#d5e8d4;strokeColor=#82b366;" vertex="1" parent="1">
          <mxGeometry x="460" y="-210" width="100" height="60" as="geometry" />
        </mxCell>
        <object placeholders="1" c4Name="Подготовка расходников" c4Type="SystemScopeBoundary" c4Application="BC" label="&lt;font style=&quot;font-size: 16px&quot;&gt;&lt;b&gt;&lt;div style=&quot;text-align: left&quot;&gt;%c4Name%&lt;/div&gt;&lt;/b&gt;&lt;/font&gt;&lt;div style=&quot;text-align: left&quot;&gt;[%c4Application%]&lt;/div&gt;" id="Lw8miHaZWjdqbxg_3rgK-8">
          <mxCell style="rounded=1;fontSize=11;whiteSpace=wrap;html=1;dashed=1;arcSize=20;fillColor=none;strokeColor=#666666;fontColor=#333333;labelBackgroundColor=none;align=left;verticalAlign=bottom;labelBorderColor=none;spacingTop=0;spacing=10;dashPattern=8 4;metaEdit=1;rotatable=0;perimeter=rectanglePerimeter;noLabel=0;labelPadding=0;allowArrows=0;connectable=0;expand=0;recursiveResize=0;editable=1;pointerEvents=0;absoluteArcSize=1;points=[[0.25,0,0],[0.5,0,0],[0.75,0,0],[1,0.25,0],[1,0.5,0],[1,0.75,0],[0.75,1,0],[0.5,1,0],[0.25,1,0],[0,0.75,0],[0,0.5,0],[0,0.25,0]];strokeWidth=3;" vertex="1" parent="1">
            <mxGeometry x="390" y="-370" width="640" height="530" as="geometry" />
          </mxCell>
        </object>
        <mxCell id="Lw8miHaZWjdqbxg_3rgK-170" style="edgeStyle=orthogonalEdgeStyle;rounded=0;orthogonalLoop=1;jettySize=auto;html=1;" edge="1" parent="1" source="Lw8miHaZWjdqbxg_3rgK-14" target="Lw8miHaZWjdqbxg_3rgK-3">
          <mxGeometry relative="1" as="geometry" />
        </mxCell>
        <mxCell id="Lw8miHaZWjdqbxg_3rgK-171" value="has_many" style="edgeLabel;html=1;align=center;verticalAlign=middle;resizable=0;points=[];" vertex="1" connectable="0" parent="Lw8miHaZWjdqbxg_3rgK-170">
          <mxGeometry x="-0.0491" y="3" relative="1" as="geometry">
            <mxPoint x="39" y="-3" as="offset" />
          </mxGeometry>
        </mxCell>
        <mxCell id="Lw8miHaZWjdqbxg_3rgK-14" value="Сотрудник отдела расходников" style="rounded=0;whiteSpace=wrap;html=1;" vertex="1" parent="1">
          <mxGeometry x="860" y="-330" width="120" height="60" as="geometry" />
        </mxCell>
        <mxCell id="Lw8miHaZWjdqbxg_3rgK-15" value="Клиент" style="rounded=0;whiteSpace=wrap;html=1;fillColor=#d5e8d4;strokeColor=#82b366;" vertex="1" parent="1">
          <mxGeometry x="460" y="10" width="100" height="60" as="geometry" />
        </mxCell>
        <mxCell id="Lw8miHaZWjdqbxg_3rgK-18" value="&lt;font style=&quot;font-size: 8px;&quot;&gt;Вся инфа для заказа печенья и генерации текста&lt;/font&gt;" style="shape=note;strokeWidth=2;fontSize=14;size=20;whiteSpace=wrap;html=1;fillColor=#fff2cc;strokeColor=#d6b656;fontColor=#666600;" vertex="1" parent="1">
          <mxGeometry x="520" y="-160" width="115" height="60" as="geometry" />
        </mxCell>
        <object placeholders="1" c4Name="Тотализатор" c4Type="SystemScopeBoundary" c4Application="BC" label="&lt;font style=&quot;font-size: 16px&quot;&gt;&lt;b&gt;&lt;div style=&quot;text-align: left&quot;&gt;%c4Name%&lt;/div&gt;&lt;/b&gt;&lt;/font&gt;&lt;div style=&quot;text-align: left&quot;&gt;[%c4Application%]&lt;/div&gt;" id="Lw8miHaZWjdqbxg_3rgK-22">
          <mxCell style="rounded=1;fontSize=11;whiteSpace=wrap;html=1;dashed=1;arcSize=20;fillColor=none;strokeColor=#666666;fontColor=#333333;labelBackgroundColor=none;align=left;verticalAlign=bottom;labelBorderColor=none;spacingTop=0;spacing=10;dashPattern=8 4;metaEdit=1;rotatable=0;perimeter=rectanglePerimeter;noLabel=0;labelPadding=0;allowArrows=0;connectable=0;expand=0;recursiveResize=0;editable=1;pointerEvents=0;absoluteArcSize=1;points=[[0.25,0,0],[0.5,0,0],[0.75,0,0],[1,0.25,0],[1,0.5,0],[1,0.75,0],[0.75,1,0],[0.5,1,0],[0.25,1,0],[0,0.75,0],[0,0.5,0],[0,0.25,0]];strokeWidth=3;" vertex="1" parent="1">
            <mxGeometry x="2070" y="-150" width="620" height="530" as="geometry" />
          </mxCell>
        </object>
        <mxCell id="Lw8miHaZWjdqbxg_3rgK-23" value="Заказ" style="rounded=0;whiteSpace=wrap;html=1;fillColor=#d5e8d4;strokeColor=#82b366;" vertex="1" parent="1">
          <mxGeometry x="2120" y="-100" width="100" height="60" as="geometry" />
        </mxCell>
        <mxCell id="Lw8miHaZWjdqbxg_3rgK-36" value="" style="edgeStyle=orthogonalEdgeStyle;rounded=0;orthogonalLoop=1;jettySize=auto;html=1;" edge="1" parent="1" source="Lw8miHaZWjdqbxg_3rgK-25" target="Lw8miHaZWjdqbxg_3rgK-26">
          <mxGeometry relative="1" as="geometry" />
        </mxCell>
        <mxCell id="Lw8miHaZWjdqbxg_3rgK-37" value="has_many" style="edgeLabel;html=1;align=center;verticalAlign=middle;resizable=0;points=[];" vertex="1" connectable="0" parent="Lw8miHaZWjdqbxg_3rgK-36">
          <mxGeometry x="-0.0556" y="2" relative="1" as="geometry">
            <mxPoint x="3" y="-2" as="offset" />
          </mxGeometry>
        </mxCell>
        <mxCell id="Lw8miHaZWjdqbxg_3rgK-25" value="Менеджер" style="rounded=0;whiteSpace=wrap;html=1;fillColor=#d5e8d4;strokeColor=#82b366;" vertex="1" parent="1">
          <mxGeometry x="2530" y="-100" width="100" height="60" as="geometry" />
        </mxCell>
        <mxCell id="Lw8miHaZWjdqbxg_3rgK-34" style="edgeStyle=orthogonalEdgeStyle;rounded=0;orthogonalLoop=1;jettySize=auto;html=1;entryX=1;entryY=0.5;entryDx=0;entryDy=0;" edge="1" parent="1" source="Lw8miHaZWjdqbxg_3rgK-26" target="Lw8miHaZWjdqbxg_3rgK-23">
          <mxGeometry relative="1" as="geometry" />
        </mxCell>
        <mxCell id="Lw8miHaZWjdqbxg_3rgK-35" value="has_one" style="edgeLabel;html=1;align=center;verticalAlign=middle;resizable=0;points=[];" vertex="1" connectable="0" parent="Lw8miHaZWjdqbxg_3rgK-34">
          <mxGeometry x="0.0833" y="-1" relative="1" as="geometry">
            <mxPoint as="offset" />
          </mxGeometry>
        </mxCell>
        <mxCell id="Lw8miHaZWjdqbxg_3rgK-213" value="" style="edgeStyle=orthogonalEdgeStyle;rounded=0;orthogonalLoop=1;jettySize=auto;html=1;" edge="1" parent="1" source="Lw8miHaZWjdqbxg_3rgK-26" target="Lw8miHaZWjdqbxg_3rgK-212">
          <mxGeometry relative="1" as="geometry" />
        </mxCell>
        <mxCell id="Lw8miHaZWjdqbxg_3rgK-214" value="has_one" style="edgeLabel;html=1;align=center;verticalAlign=middle;resizable=0;points=[];" vertex="1" connectable="0" parent="Lw8miHaZWjdqbxg_3rgK-213">
          <mxGeometry x="0.1072" y="1" relative="1" as="geometry">
            <mxPoint x="-1" y="-3" as="offset" />
          </mxGeometry>
        </mxCell>
        <mxCell id="Lw8miHaZWjdqbxg_3rgK-26" value="Ставка" style="rounded=0;whiteSpace=wrap;html=1;" vertex="1" parent="1">
          <mxGeometry x="2320" y="-100" width="120" height="60" as="geometry" />
        </mxCell>
        <object placeholders="1" c4Name="Процесс обработки заказа" c4Type="SystemScopeBoundary" c4Application="BC" label="&lt;font style=&quot;font-size: 16px&quot;&gt;&lt;b&gt;&lt;div style=&quot;text-align: left&quot;&gt;%c4Name%&lt;/div&gt;&lt;/b&gt;&lt;/font&gt;&lt;div style=&quot;text-align: left&quot;&gt;[%c4Application%]&lt;/div&gt;" id="Lw8miHaZWjdqbxg_3rgK-38">
          <mxCell style="rounded=1;fontSize=11;whiteSpace=wrap;html=1;dashed=1;arcSize=20;fillColor=none;strokeColor=#666666;fontColor=#333333;labelBackgroundColor=none;align=left;verticalAlign=bottom;labelBorderColor=none;spacingTop=0;spacing=10;dashPattern=8 4;metaEdit=1;rotatable=0;perimeter=rectanglePerimeter;noLabel=0;labelPadding=0;allowArrows=0;connectable=0;expand=0;recursiveResize=0;editable=1;pointerEvents=0;absoluteArcSize=1;points=[[0.25,0,0],[0.5,0,0],[0.75,0,0],[1,0.25,0],[1,0.5,0],[1,0.75,0],[0.75,1,0],[0.5,1,0],[0.25,1,0],[0,0.75,0],[0,0.5,0],[0,0.25,0]];strokeWidth=3;" vertex="1" parent="1">
            <mxGeometry x="300" y="460" width="860" height="650" as="geometry" />
          </mxCell>
        </object>
        <mxCell id="Lw8miHaZWjdqbxg_3rgK-43" value="" style="edgeStyle=orthogonalEdgeStyle;rounded=0;orthogonalLoop=1;jettySize=auto;html=1;" edge="1" parent="1" source="Lw8miHaZWjdqbxg_3rgK-39" target="Lw8miHaZWjdqbxg_3rgK-40">
          <mxGeometry relative="1" as="geometry" />
        </mxCell>
        <mxCell id="Lw8miHaZWjdqbxg_3rgK-51" value="has_many" style="edgeLabel;html=1;align=center;verticalAlign=middle;resizable=0;points=[];" vertex="1" connectable="0" parent="Lw8miHaZWjdqbxg_3rgK-43">
          <mxGeometry x="-0.2035" y="1" relative="1" as="geometry">
            <mxPoint x="10" y="1" as="offset" />
          </mxGeometry>
        </mxCell>
        <mxCell id="Lw8miHaZWjdqbxg_3rgK-44" value="" style="edgeStyle=orthogonalEdgeStyle;rounded=0;orthogonalLoop=1;jettySize=auto;html=1;exitX=1;exitY=0.5;exitDx=0;exitDy=0;" edge="1" parent="1" source="Lw8miHaZWjdqbxg_3rgK-40" target="Lw8miHaZWjdqbxg_3rgK-41">
          <mxGeometry relative="1" as="geometry" />
        </mxCell>
        <mxCell id="Lw8miHaZWjdqbxg_3rgK-47" value="has_one" style="edgeLabel;html=1;align=center;verticalAlign=middle;resizable=0;points=[];" vertex="1" connectable="0" parent="Lw8miHaZWjdqbxg_3rgK-44">
          <mxGeometry x="0.0963" y="-2" relative="1" as="geometry">
            <mxPoint as="offset" />
          </mxGeometry>
        </mxCell>
        <mxCell id="Lw8miHaZWjdqbxg_3rgK-52" value="" style="edgeStyle=orthogonalEdgeStyle;rounded=0;orthogonalLoop=1;jettySize=auto;html=1;" edge="1" parent="1" source="Lw8miHaZWjdqbxg_3rgK-39" target="Lw8miHaZWjdqbxg_3rgK-42">
          <mxGeometry relative="1" as="geometry" />
        </mxCell>
        <mxCell id="Lw8miHaZWjdqbxg_3rgK-53" value="has_many" style="edgeLabel;html=1;align=center;verticalAlign=middle;resizable=0;points=[];" vertex="1" connectable="0" parent="Lw8miHaZWjdqbxg_3rgK-52">
          <mxGeometry x="-0.1082" y="-1" relative="1" as="geometry">
            <mxPoint as="offset" />
          </mxGeometry>
        </mxCell>
        <mxCell id="Lw8miHaZWjdqbxg_3rgK-56" style="edgeStyle=orthogonalEdgeStyle;rounded=0;orthogonalLoop=1;jettySize=auto;html=1;exitX=0.25;exitY=0;exitDx=0;exitDy=0;" edge="1" parent="1" source="Lw8miHaZWjdqbxg_3rgK-39" target="Lw8miHaZWjdqbxg_3rgK-54">
          <mxGeometry relative="1" as="geometry">
            <mxPoint x="620" y="770" as="sourcePoint" />
            <Array as="points">
              <mxPoint x="628" y="760" />
              <mxPoint x="550" y="760" />
            </Array>
          </mxGeometry>
        </mxCell>
        <mxCell id="Lw8miHaZWjdqbxg_3rgK-58" value="has_one" style="edgeLabel;html=1;align=center;verticalAlign=middle;resizable=0;points=[];" vertex="1" connectable="0" parent="Lw8miHaZWjdqbxg_3rgK-56">
          <mxGeometry x="0.0992" y="-1" relative="1" as="geometry">
            <mxPoint as="offset" />
          </mxGeometry>
        </mxCell>
        <mxCell id="Lw8miHaZWjdqbxg_3rgK-57" style="edgeStyle=orthogonalEdgeStyle;rounded=0;orthogonalLoop=1;jettySize=auto;html=1;entryX=0.5;entryY=1;entryDx=0;entryDy=0;" edge="1" parent="1" target="Lw8miHaZWjdqbxg_3rgK-55">
          <mxGeometry relative="1" as="geometry">
            <mxPoint x="680" y="790" as="sourcePoint" />
            <Array as="points">
              <mxPoint x="680" y="760" />
              <mxPoint x="740" y="760" />
            </Array>
          </mxGeometry>
        </mxCell>
        <mxCell id="Lw8miHaZWjdqbxg_3rgK-59" value="has_one" style="edgeLabel;html=1;align=center;verticalAlign=middle;resizable=0;points=[];" vertex="1" connectable="0" parent="Lw8miHaZWjdqbxg_3rgK-57">
          <mxGeometry x="-0.0202" relative="1" as="geometry">
            <mxPoint y="-22" as="offset" />
          </mxGeometry>
        </mxCell>
        <mxCell id="Lw8miHaZWjdqbxg_3rgK-129" style="edgeStyle=orthogonalEdgeStyle;rounded=1;orthogonalLoop=1;jettySize=auto;html=1;entryX=1;entryY=0.5;entryDx=0;entryDy=0;exitX=0.25;exitY=1;exitDx=0;exitDy=0;fillColor=#d5e8d4;strokeColor=#82b366;curved=0;jumpStyle=none;strokeWidth=8;endArrow=none;endFill=0;" edge="1" parent="1" source="Lw8miHaZWjdqbxg_3rgK-39">
          <mxGeometry relative="1" as="geometry">
            <mxPoint x="625" y="864" as="sourcePoint" />
            <mxPoint x="885" y="1774" as="targetPoint" />
            <Array as="points">
              <mxPoint x="628" y="864" />
              <mxPoint x="610" y="864" />
              <mxPoint x="610" y="1774" />
            </Array>
          </mxGeometry>
        </mxCell>
        <mxCell id="Lw8miHaZWjdqbxg_3rgK-130" style="edgeStyle=orthogonalEdgeStyle;rounded=0;orthogonalLoop=1;jettySize=auto;html=1;entryX=0;entryY=0.5;entryDx=0;entryDy=0;fillColor=#d5e8d4;strokeColor=#82b366;exitX=0.5;exitY=1;exitDx=0;exitDy=0;strokeWidth=8;endArrow=none;endFill=0;" edge="1" parent="1" source="Lw8miHaZWjdqbxg_3rgK-39" target="Lw8miHaZWjdqbxg_3rgK-63">
          <mxGeometry relative="1" as="geometry">
            <Array as="points">
              <mxPoint x="655" y="1140" />
            </Array>
          </mxGeometry>
        </mxCell>
        <mxCell id="Lw8miHaZWjdqbxg_3rgK-204" style="edgeStyle=orthogonalEdgeStyle;rounded=0;orthogonalLoop=1;jettySize=auto;html=1;exitX=1;exitY=0.75;exitDx=0;exitDy=0;" edge="1" parent="1" source="Lw8miHaZWjdqbxg_3rgK-39" target="Lw8miHaZWjdqbxg_3rgK-203">
          <mxGeometry relative="1" as="geometry" />
        </mxCell>
        <mxCell id="Lw8miHaZWjdqbxg_3rgK-207" value="has_one" style="edgeLabel;html=1;align=center;verticalAlign=middle;resizable=0;points=[];" vertex="1" connectable="0" parent="Lw8miHaZWjdqbxg_3rgK-204">
          <mxGeometry x="0.0321" y="1" relative="1" as="geometry">
            <mxPoint as="offset" />
          </mxGeometry>
        </mxCell>
        <mxCell id="Lw8miHaZWjdqbxg_3rgK-223" style="edgeStyle=orthogonalEdgeStyle;rounded=0;orthogonalLoop=1;jettySize=auto;html=1;exitX=1;exitY=1;exitDx=0;exitDy=0;jumpStyle=gap;" edge="1" parent="1" source="Lw8miHaZWjdqbxg_3rgK-39" target="Lw8miHaZWjdqbxg_3rgK-222">
          <mxGeometry relative="1" as="geometry">
            <Array as="points">
              <mxPoint x="710" y="900" />
            </Array>
          </mxGeometry>
        </mxCell>
        <mxCell id="Lw8miHaZWjdqbxg_3rgK-224" value="has_one" style="edgeLabel;html=1;align=center;verticalAlign=middle;resizable=0;points=[];" vertex="1" connectable="0" parent="Lw8miHaZWjdqbxg_3rgK-223">
          <mxGeometry x="0.0026" y="1" relative="1" as="geometry">
            <mxPoint as="offset" />
          </mxGeometry>
        </mxCell>
        <mxCell id="Lw8miHaZWjdqbxg_3rgK-225" style="edgeStyle=orthogonalEdgeStyle;rounded=0;orthogonalLoop=1;jettySize=auto;html=1;exitX=0;exitY=0.5;exitDx=0;exitDy=0;" edge="1" parent="1" source="Lw8miHaZWjdqbxg_3rgK-39" target="Lw8miHaZWjdqbxg_3rgK-221">
          <mxGeometry relative="1" as="geometry">
            <Array as="points">
              <mxPoint x="600" y="840" />
              <mxPoint x="495" y="840" />
            </Array>
          </mxGeometry>
        </mxCell>
        <mxCell id="Lw8miHaZWjdqbxg_3rgK-226" value="has_one" style="edgeLabel;html=1;align=center;verticalAlign=middle;resizable=0;points=[];" vertex="1" connectable="0" parent="Lw8miHaZWjdqbxg_3rgK-225">
          <mxGeometry x="0.5268" y="1" relative="1" as="geometry">
            <mxPoint as="offset" />
          </mxGeometry>
        </mxCell>
        <mxCell id="Lw8miHaZWjdqbxg_3rgK-39" value="Заказ" style="rounded=0;whiteSpace=wrap;html=1;" vertex="1" parent="1">
          <mxGeometry x="600" y="790" width="110" height="60" as="geometry" />
        </mxCell>
        <mxCell id="Lw8miHaZWjdqbxg_3rgK-133" style="edgeStyle=orthogonalEdgeStyle;rounded=0;orthogonalLoop=1;jettySize=auto;html=1;fillColor=#d5e8d4;strokeColor=#82b366;strokeWidth=8;endArrow=none;endFill=0;" edge="1" parent="1" source="Lw8miHaZWjdqbxg_3rgK-40">
          <mxGeometry relative="1" as="geometry">
            <mxPoint x="760" y="-150" as="targetPoint" />
          </mxGeometry>
        </mxCell>
        <mxCell id="Lw8miHaZWjdqbxg_3rgK-40" value="Расходник" style="rounded=0;whiteSpace=wrap;html=1;fillColor=#d5e8d4;strokeColor=#82b366;" vertex="1" parent="1">
          <mxGeometry x="790" y="500" width="120" height="60" as="geometry" />
        </mxCell>
        <mxCell id="Lw8miHaZWjdqbxg_3rgK-41" value="Тип расходника" style="rounded=0;whiteSpace=wrap;html=1;fillColor=#d5e8d4;strokeColor=#82b366;" vertex="1" parent="1">
          <mxGeometry x="1020" y="500" width="120" height="60" as="geometry" />
        </mxCell>
        <mxCell id="Lw8miHaZWjdqbxg_3rgK-42" value="Тип услуги" style="rounded=0;whiteSpace=wrap;html=1;" vertex="1" parent="1">
          <mxGeometry x="340" y="660" width="120" height="60" as="geometry" />
        </mxCell>
        <mxCell id="Lw8miHaZWjdqbxg_3rgK-54" value="Клиент" style="rounded=0;whiteSpace=wrap;html=1;fillColor=#d5e8d4;strokeColor=#82b366;" vertex="1" parent="1">
          <mxGeometry x="500" y="585" width="100" height="60" as="geometry" />
        </mxCell>
        <mxCell id="Lw8miHaZWjdqbxg_3rgK-55" value="Воркер" style="rounded=0;whiteSpace=wrap;html=1;fillColor=#d5e8d4;strokeColor=#82b366;" vertex="1" parent="1">
          <mxGeometry x="690" y="580" width="100" height="60" as="geometry" />
        </mxCell>
        <mxCell id="Lw8miHaZWjdqbxg_3rgK-60" value="&lt;div style=&quot;text-align: left;&quot;&gt;&lt;font color=&quot;#000000&quot;&gt;&lt;span style=&quot;font-size: 12px;&quot;&gt;- Печенье&lt;br&gt;- Бланк приема работы&lt;/span&gt;&lt;/font&gt;&lt;/div&gt;" style="shape=note;strokeWidth=2;fontSize=14;size=20;whiteSpace=wrap;html=1;fillColor=#fff2cc;strokeColor=#d6b656;fontColor=#666600;" vertex="1" parent="1">
          <mxGeometry x="1013.75" y="570" width="132.5" height="90" as="geometry" />
        </mxCell>
        <object placeholders="1" c4Name="Проверка качества" c4Type="SystemScopeBoundary" c4Application="BC" label="&lt;font style=&quot;font-size: 16px&quot;&gt;&lt;b&gt;&lt;div style=&quot;text-align: left&quot;&gt;%c4Name%&lt;/div&gt;&lt;/b&gt;&lt;/font&gt;&lt;div style=&quot;text-align: left&quot;&gt;[%c4Application%]&lt;/div&gt;" id="Lw8miHaZWjdqbxg_3rgK-61">
          <mxCell style="rounded=1;fontSize=11;whiteSpace=wrap;html=1;dashed=1;arcSize=20;fillColor=none;strokeColor=#666666;fontColor=#333333;labelBackgroundColor=none;align=left;verticalAlign=bottom;labelBorderColor=none;spacingTop=0;spacing=10;dashPattern=8 4;metaEdit=1;rotatable=0;perimeter=rectanglePerimeter;noLabel=0;labelPadding=0;allowArrows=0;connectable=0;expand=0;recursiveResize=0;editable=1;pointerEvents=0;absoluteArcSize=1;points=[[0.25,0,0],[0.5,0,0],[0.75,0,0],[1,0.25,0],[1,0.5,0],[1,0.75,0],[0.75,1,0],[0.5,1,0],[0.25,1,0],[0,0.75,0],[0,0.5,0],[0,0.25,0]];strokeWidth=3;" vertex="1" parent="1">
            <mxGeometry x="1340" y="970" width="620" height="330" as="geometry" />
          </mxCell>
        </object>
        <mxCell id="Lw8miHaZWjdqbxg_3rgK-62" value="Менеджер" style="rounded=0;whiteSpace=wrap;html=1;fillColor=#d5e8d4;strokeColor=#82b366;" vertex="1" parent="1">
          <mxGeometry x="1850" y="1109" width="100" height="60" as="geometry" />
        </mxCell>
        <mxCell id="Lw8miHaZWjdqbxg_3rgK-66" value="" style="edgeStyle=orthogonalEdgeStyle;rounded=0;orthogonalLoop=1;jettySize=auto;html=1;" edge="1" parent="1" source="Lw8miHaZWjdqbxg_3rgK-63" target="Lw8miHaZWjdqbxg_3rgK-65">
          <mxGeometry relative="1" as="geometry" />
        </mxCell>
        <mxCell id="Lw8miHaZWjdqbxg_3rgK-68" value="has_one" style="edgeLabel;html=1;align=center;verticalAlign=middle;resizable=0;points=[];" vertex="1" connectable="0" parent="Lw8miHaZWjdqbxg_3rgK-66">
          <mxGeometry x="-0.1006" relative="1" as="geometry">
            <mxPoint as="offset" />
          </mxGeometry>
        </mxCell>
        <mxCell id="Lw8miHaZWjdqbxg_3rgK-63" value="Заказ" style="rounded=0;whiteSpace=wrap;html=1;fillColor=#d5e8d4;strokeColor=#82b366;" vertex="1" parent="1">
          <mxGeometry x="1480" y="1109" width="100" height="60" as="geometry" />
        </mxCell>
        <mxCell id="Lw8miHaZWjdqbxg_3rgK-64" value="&lt;font style=&quot;font-size: 8px;&quot;&gt;- Вся информация по работе&lt;br&gt;&lt;/font&gt;&lt;div&gt;&lt;font style=&quot;font-size: 8px;&quot;&gt;- Статус&lt;br&gt;- Заказчик (клиент)&lt;/font&gt;&lt;/div&gt;" style="shape=note;strokeWidth=2;fontSize=14;size=20;whiteSpace=wrap;html=1;fillColor=#fff2cc;strokeColor=#d6b656;fontColor=#666600;" vertex="1" parent="1">
          <mxGeometry x="1470" y="1039" width="110" height="70" as="geometry" />
        </mxCell>
        <mxCell id="Lw8miHaZWjdqbxg_3rgK-65" value="Результат&lt;br&gt;проверки качества" style="rounded=0;whiteSpace=wrap;html=1;" vertex="1" parent="1">
          <mxGeometry x="1690" y="1109" width="120" height="60" as="geometry" />
        </mxCell>
        <object placeholders="1" c4Name="Управление личным кабинетом" c4Type="SystemScopeBoundary" c4Application="BC" label="&lt;font style=&quot;font-size: 16px&quot;&gt;&lt;b&gt;&lt;div style=&quot;text-align: left&quot;&gt;%c4Name%&lt;/div&gt;&lt;/b&gt;&lt;/font&gt;&lt;div style=&quot;text-align: left&quot;&gt;[%c4Application%]&lt;/div&gt;" id="Lw8miHaZWjdqbxg_3rgK-73">
          <mxCell style="rounded=1;fontSize=11;whiteSpace=wrap;html=1;dashed=1;arcSize=20;fillColor=none;strokeColor=#666666;fontColor=#333333;labelBackgroundColor=none;align=left;verticalAlign=bottom;labelBorderColor=none;spacingTop=0;spacing=10;dashPattern=8 4;metaEdit=1;rotatable=0;perimeter=rectanglePerimeter;noLabel=0;labelPadding=0;allowArrows=0;connectable=0;expand=0;recursiveResize=0;editable=1;pointerEvents=0;absoluteArcSize=1;points=[[0.25,0,0],[0.5,0,0],[0.75,0,0],[1,0.25,0],[1,0.5,0],[1,0.75,0],[0.75,1,0],[0.5,1,0],[0.25,1,0],[0,0.75,0],[0,0.5,0],[0,0.25,0]];strokeWidth=3;" vertex="1" parent="1">
            <mxGeometry x="470" y="1530" width="2240" height="580" as="geometry" />
          </mxCell>
        </object>
        <mxCell id="Lw8miHaZWjdqbxg_3rgK-85" value="" style="edgeStyle=orthogonalEdgeStyle;rounded=0;orthogonalLoop=1;jettySize=auto;html=1;" edge="1" parent="1" source="Lw8miHaZWjdqbxg_3rgK-74" target="Lw8miHaZWjdqbxg_3rgK-75">
          <mxGeometry relative="1" as="geometry" />
        </mxCell>
        <mxCell id="Lw8miHaZWjdqbxg_3rgK-86" value="has_many" style="edgeLabel;html=1;align=center;verticalAlign=middle;resizable=0;points=[];" vertex="1" connectable="0" parent="Lw8miHaZWjdqbxg_3rgK-85">
          <mxGeometry x="-0.0481" relative="1" as="geometry">
            <mxPoint as="offset" />
          </mxGeometry>
        </mxCell>
        <mxCell id="Lw8miHaZWjdqbxg_3rgK-87" value="" style="edgeStyle=orthogonalEdgeStyle;rounded=0;orthogonalLoop=1;jettySize=auto;html=1;" edge="1" parent="1" source="Lw8miHaZWjdqbxg_3rgK-74" target="Lw8miHaZWjdqbxg_3rgK-77">
          <mxGeometry relative="1" as="geometry" />
        </mxCell>
        <mxCell id="Lw8miHaZWjdqbxg_3rgK-88" value="has_one" style="edgeLabel;html=1;align=center;verticalAlign=middle;resizable=0;points=[];" vertex="1" connectable="0" parent="Lw8miHaZWjdqbxg_3rgK-87">
          <mxGeometry x="-0.0167" y="-1" relative="1" as="geometry">
            <mxPoint as="offset" />
          </mxGeometry>
        </mxCell>
        <mxCell id="Lw8miHaZWjdqbxg_3rgK-74" value="Заявка" style="rounded=0;whiteSpace=wrap;html=1;" vertex="1" parent="1">
          <mxGeometry x="2050" y="2310" width="120" height="60" as="geometry" />
        </mxCell>
        <mxCell id="Lw8miHaZWjdqbxg_3rgK-75" value="Тест" style="rounded=0;whiteSpace=wrap;html=1;" vertex="1" parent="1">
          <mxGeometry x="2280" y="2310" width="120" height="60" as="geometry" />
        </mxCell>
        <mxCell id="Lw8miHaZWjdqbxg_3rgK-91" value="" style="edgeStyle=orthogonalEdgeStyle;rounded=0;orthogonalLoop=1;jettySize=auto;html=1;" edge="1" parent="1" source="Lw8miHaZWjdqbxg_3rgK-77" target="Lw8miHaZWjdqbxg_3rgK-90">
          <mxGeometry relative="1" as="geometry" />
        </mxCell>
        <mxCell id="Lw8miHaZWjdqbxg_3rgK-92" value="has_one" style="edgeLabel;html=1;align=center;verticalAlign=middle;resizable=0;points=[];" vertex="1" connectable="0" parent="Lw8miHaZWjdqbxg_3rgK-91">
          <mxGeometry x="-0.0121" y="1" relative="1" as="geometry">
            <mxPoint as="offset" />
          </mxGeometry>
        </mxCell>
        <mxCell id="Lw8miHaZWjdqbxg_3rgK-94" value="" style="edgeStyle=orthogonalEdgeStyle;rounded=0;orthogonalLoop=1;jettySize=auto;html=1;" edge="1" parent="1" source="Lw8miHaZWjdqbxg_3rgK-77" target="Lw8miHaZWjdqbxg_3rgK-93">
          <mxGeometry relative="1" as="geometry" />
        </mxCell>
        <mxCell id="Lw8miHaZWjdqbxg_3rgK-158" value="" style="edgeStyle=orthogonalEdgeStyle;rounded=0;orthogonalLoop=1;jettySize=auto;html=1;" edge="1" parent="1" source="Lw8miHaZWjdqbxg_3rgK-77" target="Lw8miHaZWjdqbxg_3rgK-157">
          <mxGeometry relative="1" as="geometry" />
        </mxCell>
        <mxCell id="Lw8miHaZWjdqbxg_3rgK-159" value="has_many" style="edgeLabel;html=1;align=center;verticalAlign=middle;resizable=0;points=[];" vertex="1" connectable="0" parent="Lw8miHaZWjdqbxg_3rgK-158">
          <mxGeometry x="0.0667" y="-2" relative="1" as="geometry">
            <mxPoint x="-9" y="-2" as="offset" />
          </mxGeometry>
        </mxCell>
        <mxCell id="Lw8miHaZWjdqbxg_3rgK-77" value="Кандидат в воркеры" style="rounded=0;whiteSpace=wrap;html=1;" vertex="1" parent="1">
          <mxGeometry x="2050" y="2470" width="120" height="60" as="geometry" />
        </mxCell>
        <mxCell id="Lw8miHaZWjdqbxg_3rgK-78" value="Менеджер" style="rounded=0;whiteSpace=wrap;html=1;fillColor=#d5e8d4;strokeColor=#82b366;" vertex="1" parent="1">
          <mxGeometry x="2530" y="2200" width="100" height="60" as="geometry" />
        </mxCell>
        <mxCell id="Lw8miHaZWjdqbxg_3rgK-81" value="" style="edgeStyle=orthogonalEdgeStyle;rounded=0;orthogonalLoop=1;jettySize=auto;html=1;" edge="1" parent="1" source="Lw8miHaZWjdqbxg_3rgK-79" target="Lw8miHaZWjdqbxg_3rgK-75">
          <mxGeometry relative="1" as="geometry" />
        </mxCell>
        <mxCell id="Lw8miHaZWjdqbxg_3rgK-82" value="has_many" style="edgeLabel;html=1;align=center;verticalAlign=middle;resizable=0;points=[];" vertex="1" connectable="0" parent="Lw8miHaZWjdqbxg_3rgK-81">
          <mxGeometry x="0.1095" y="-1" relative="1" as="geometry">
            <mxPoint as="offset" />
          </mxGeometry>
        </mxCell>
        <mxCell id="Lw8miHaZWjdqbxg_3rgK-79" value="Вакансия" style="rounded=0;whiteSpace=wrap;html=1;" vertex="1" parent="1">
          <mxGeometry x="2510" y="2310" width="120" height="60" as="geometry" />
        </mxCell>
        <mxCell id="Lw8miHaZWjdqbxg_3rgK-90" value="Характеристики&lt;br&gt;кандидата" style="rounded=0;whiteSpace=wrap;html=1;" vertex="1" parent="1">
          <mxGeometry x="2050" y="2580" width="120" height="60" as="geometry" />
        </mxCell>
        <mxCell id="Lw8miHaZWjdqbxg_3rgK-93" value="Информация о кандидате" style="rounded=0;whiteSpace=wrap;html=1;" vertex="1" parent="1">
          <mxGeometry x="1880" y="2580" width="120" height="60" as="geometry" />
        </mxCell>
        <object placeholders="1" c4Name="Отбор кандидатов" c4Type="SystemScopeBoundary" c4Application="BC" label="&lt;font style=&quot;font-size: 16px&quot;&gt;&lt;b&gt;&lt;div style=&quot;text-align: left&quot;&gt;%c4Name%&lt;/div&gt;&lt;/b&gt;&lt;/font&gt;&lt;div style=&quot;text-align: left&quot;&gt;[%c4Application%]&lt;/div&gt;" id="Lw8miHaZWjdqbxg_3rgK-95">
          <mxCell style="rounded=1;fontSize=11;whiteSpace=wrap;html=1;dashed=1;arcSize=20;fillColor=none;strokeColor=#666666;fontColor=#333333;labelBackgroundColor=none;align=left;verticalAlign=bottom;labelBorderColor=none;spacingTop=0;spacing=10;dashPattern=8 4;metaEdit=1;rotatable=0;perimeter=rectanglePerimeter;noLabel=0;labelPadding=0;allowArrows=0;connectable=0;expand=0;recursiveResize=0;editable=1;pointerEvents=0;absoluteArcSize=1;points=[[0.25,0,0],[0.5,0,0],[0.75,0,0],[1,0.25,0],[1,0.5,0],[1,0.75,0],[0.75,1,0],[0.5,1,0],[0.25,1,0],[0,0.75,0],[0,0.5,0],[0,0.25,0]];strokeWidth=3;" vertex="1" parent="1">
            <mxGeometry x="1820" y="2170" width="870" height="630" as="geometry" />
          </mxCell>
        </object>
        <mxCell id="Lw8miHaZWjdqbxg_3rgK-103" value="" style="edgeStyle=orthogonalEdgeStyle;rounded=0;orthogonalLoop=1;jettySize=auto;html=1;entryX=0.5;entryY=0;entryDx=0;entryDy=0;" edge="1" parent="1" source="Lw8miHaZWjdqbxg_3rgK-96" target="Lw8miHaZWjdqbxg_3rgK-162">
          <mxGeometry relative="1" as="geometry">
            <mxPoint x="1242.571428571429" y="1870.0000000000005" as="targetPoint" />
          </mxGeometry>
        </mxCell>
        <mxCell id="Lw8miHaZWjdqbxg_3rgK-106" value="has_many" style="edgeLabel;html=1;align=center;verticalAlign=middle;resizable=0;points=[];" vertex="1" connectable="0" parent="Lw8miHaZWjdqbxg_3rgK-103">
          <mxGeometry x="-0.0472" y="-3" relative="1" as="geometry">
            <mxPoint as="offset" />
          </mxGeometry>
        </mxCell>
        <mxCell id="Lw8miHaZWjdqbxg_3rgK-104" value="" style="edgeStyle=orthogonalEdgeStyle;rounded=0;orthogonalLoop=1;jettySize=auto;html=1;entryX=0.5;entryY=1;entryDx=0;entryDy=0;" edge="1" parent="1" source="Lw8miHaZWjdqbxg_3rgK-96" target="Lw8miHaZWjdqbxg_3rgK-163">
          <mxGeometry relative="1" as="geometry">
            <mxPoint x="1242.571428571429" y="1634" as="targetPoint" />
          </mxGeometry>
        </mxCell>
        <mxCell id="Lw8miHaZWjdqbxg_3rgK-105" value="has_many" style="edgeLabel;html=1;align=center;verticalAlign=middle;resizable=0;points=[];" vertex="1" connectable="0" parent="Lw8miHaZWjdqbxg_3rgK-104">
          <mxGeometry x="0.0667" y="1" relative="1" as="geometry">
            <mxPoint as="offset" />
          </mxGeometry>
        </mxCell>
        <mxCell id="Lw8miHaZWjdqbxg_3rgK-96" value="Invoice" style="rounded=0;whiteSpace=wrap;html=1;" vertex="1" parent="1">
          <mxGeometry x="1186.25" y="1730" width="127.5" height="60" as="geometry" />
        </mxCell>
        <mxCell id="Lw8miHaZWjdqbxg_3rgK-107" style="edgeStyle=orthogonalEdgeStyle;rounded=0;orthogonalLoop=1;jettySize=auto;html=1;entryX=0.5;entryY=1;entryDx=0;entryDy=0;exitX=0;exitY=0.5;exitDx=0;exitDy=0;" edge="1" parent="1" source="Lw8miHaZWjdqbxg_3rgK-162" target="Lw8miHaZWjdqbxg_3rgK-100">
          <mxGeometry relative="1" as="geometry">
            <mxPoint x="1180" y="1902.0000000000005" as="sourcePoint" />
          </mxGeometry>
        </mxCell>
        <mxCell id="Lw8miHaZWjdqbxg_3rgK-116" style="edgeStyle=orthogonalEdgeStyle;rounded=0;orthogonalLoop=1;jettySize=auto;html=1;exitX=1;exitY=0.5;exitDx=0;exitDy=0;" edge="1" parent="1" source="Lw8miHaZWjdqbxg_3rgK-162" target="Lw8miHaZWjdqbxg_3rgK-113">
          <mxGeometry relative="1" as="geometry">
            <mxPoint x="1305" y="1902.0000000000005" as="sourcePoint" />
          </mxGeometry>
        </mxCell>
        <mxCell id="Lw8miHaZWjdqbxg_3rgK-118" value="has_one" style="edgeLabel;html=1;align=center;verticalAlign=middle;resizable=0;points=[];" vertex="1" connectable="0" parent="Lw8miHaZWjdqbxg_3rgK-116">
          <mxGeometry x="0.618" relative="1" as="geometry">
            <mxPoint as="offset" />
          </mxGeometry>
        </mxCell>
        <mxCell id="Lw8miHaZWjdqbxg_3rgK-109" style="edgeStyle=orthogonalEdgeStyle;rounded=0;orthogonalLoop=1;jettySize=auto;html=1;exitX=0;exitY=0.5;exitDx=0;exitDy=0;" edge="1" parent="1" source="Lw8miHaZWjdqbxg_3rgK-163" target="Lw8miHaZWjdqbxg_3rgK-100">
          <mxGeometry relative="1" as="geometry">
            <mxPoint x="1192.5" y="1604.0000000000005" as="sourcePoint" />
          </mxGeometry>
        </mxCell>
        <mxCell id="Lw8miHaZWjdqbxg_3rgK-110" value="has_many" style="edgeLabel;html=1;align=center;verticalAlign=middle;resizable=0;points=[];" vertex="1" connectable="0" parent="Lw8miHaZWjdqbxg_3rgK-109">
          <mxGeometry x="0.5271" y="1" relative="1" as="geometry">
            <mxPoint as="offset" />
          </mxGeometry>
        </mxCell>
        <mxCell id="Lw8miHaZWjdqbxg_3rgK-114" style="edgeStyle=orthogonalEdgeStyle;rounded=0;orthogonalLoop=1;jettySize=auto;html=1;exitX=1;exitY=0.5;exitDx=0;exitDy=0;" edge="1" parent="1" source="Lw8miHaZWjdqbxg_3rgK-163" target="Lw8miHaZWjdqbxg_3rgK-113">
          <mxGeometry relative="1" as="geometry">
            <mxPoint x="1292.5" y="1604.0000000000005" as="sourcePoint" />
          </mxGeometry>
        </mxCell>
        <mxCell id="Lw8miHaZWjdqbxg_3rgK-115" value="has_one" style="edgeLabel;html=1;align=center;verticalAlign=middle;resizable=0;points=[];" vertex="1" connectable="0" parent="Lw8miHaZWjdqbxg_3rgK-114">
          <mxGeometry x="0.5183" y="1" relative="1" as="geometry">
            <mxPoint x="-1" y="46" as="offset" />
          </mxGeometry>
        </mxCell>
        <mxCell id="Lw8miHaZWjdqbxg_3rgK-229" style="edgeStyle=orthogonalEdgeStyle;rounded=0;orthogonalLoop=1;jettySize=auto;html=1;entryX=0;entryY=0.5;entryDx=0;entryDy=0;" edge="1" parent="1" source="Lw8miHaZWjdqbxg_3rgK-100" target="Lw8miHaZWjdqbxg_3rgK-96">
          <mxGeometry relative="1" as="geometry" />
        </mxCell>
        <mxCell id="Lw8miHaZWjdqbxg_3rgK-230" value="has_one" style="edgeLabel;html=1;align=center;verticalAlign=middle;resizable=0;points=[];" vertex="1" connectable="0" parent="Lw8miHaZWjdqbxg_3rgK-229">
          <mxGeometry x="-0.0648" y="2" relative="1" as="geometry">
            <mxPoint x="10" y="2" as="offset" />
          </mxGeometry>
        </mxCell>
        <mxCell id="Lw8miHaZWjdqbxg_3rgK-100" value="Заказ" style="rounded=0;whiteSpace=wrap;html=1;fillColor=#d5e8d4;strokeColor=#82b366;" vertex="1" parent="1">
          <mxGeometry x="810" y="1730" width="100" height="60" as="geometry" />
        </mxCell>
        <mxCell id="Lw8miHaZWjdqbxg_3rgK-112" value="&lt;span style=&quot;font-size: 8px;&quot;&gt;Здесь же набор гипотез&lt;/span&gt;" style="shape=note;strokeWidth=2;fontSize=14;size=20;whiteSpace=wrap;html=1;fillColor=#fff2cc;strokeColor=#d6b656;fontColor=#666600;" vertex="1" parent="1">
          <mxGeometry x="1700" y="1050" width="100" height="60" as="geometry" />
        </mxCell>
        <mxCell id="Lw8miHaZWjdqbxg_3rgK-113" value="Способ оплаты" style="rounded=0;whiteSpace=wrap;html=1;" vertex="1" parent="1">
          <mxGeometry x="1540" y="1714" width="120" height="60" as="geometry" />
        </mxCell>
        <mxCell id="Lw8miHaZWjdqbxg_3rgK-127" value="&lt;span style=&quot;font-size: 8px;&quot;&gt;В том числе штраф&lt;/span&gt;" style="shape=note;strokeWidth=2;fontSize=14;size=20;whiteSpace=wrap;html=1;fillColor=#fff2cc;strokeColor=#d6b656;fontColor=#666600;" vertex="1" parent="1">
          <mxGeometry x="1290" y="1700" width="90" height="50" as="geometry" />
        </mxCell>
        <mxCell id="Lw8miHaZWjdqbxg_3rgK-128" value="&lt;span style=&quot;font-size: 8px;&quot;&gt;TODO: выплата менеджером&lt;/span&gt;" style="shape=note;strokeWidth=2;fontSize=14;size=20;whiteSpace=wrap;html=1;fillColor=#fff2cc;strokeColor=#d6b656;fontColor=#666600;" vertex="1" parent="1">
          <mxGeometry x="900" y="2030" width="90" height="50" as="geometry" />
        </mxCell>
        <mxCell id="Lw8miHaZWjdqbxg_3rgK-132" style="edgeStyle=orthogonalEdgeStyle;rounded=1;orthogonalLoop=1;jettySize=auto;html=1;entryX=0;entryY=0.5;entryDx=0;entryDy=0;fillColor=#d5e8d4;strokeColor=#82b366;curved=0;jumpStyle=none;strokeWidth=8;exitX=0.75;exitY=1;exitDx=0;exitDy=0;endArrow=none;endFill=0;" edge="1" parent="1" source="Lw8miHaZWjdqbxg_3rgK-39" target="Lw8miHaZWjdqbxg_3rgK-23">
          <mxGeometry relative="1" as="geometry">
            <mxPoint x="710" y="860" as="sourcePoint" />
            <mxPoint x="1630" y="1734" as="targetPoint" />
            <Array as="points">
              <mxPoint x="683" y="940" />
              <mxPoint x="1940" y="940" />
              <mxPoint x="1940" y="-70" />
            </Array>
          </mxGeometry>
        </mxCell>
        <mxCell id="Lw8miHaZWjdqbxg_3rgK-141" style="edgeStyle=orthogonalEdgeStyle;rounded=0;orthogonalLoop=1;jettySize=auto;html=1;entryX=0.5;entryY=1;entryDx=0;entryDy=0;strokeWidth=8;fillColor=#d5e8d4;strokeColor=#82b366;jumpStyle=arc;endArrow=none;endFill=0;" edge="1" parent="1" source="Lw8miHaZWjdqbxg_3rgK-135" target="Lw8miHaZWjdqbxg_3rgK-25">
          <mxGeometry relative="1" as="geometry" />
        </mxCell>
        <mxCell id="Lw8miHaZWjdqbxg_3rgK-143" style="edgeStyle=orthogonalEdgeStyle;rounded=0;orthogonalLoop=1;jettySize=auto;html=1;strokeWidth=8;fillColor=#d5e8d4;strokeColor=#82b366;exitX=1;exitY=0.75;exitDx=0;exitDy=0;jumpStyle=arc;endArrow=none;endFill=0;" edge="1" parent="1" source="Lw8miHaZWjdqbxg_3rgK-135" target="Lw8miHaZWjdqbxg_3rgK-78">
          <mxGeometry relative="1" as="geometry" />
        </mxCell>
        <mxCell id="Lw8miHaZWjdqbxg_3rgK-169" style="edgeStyle=orthogonalEdgeStyle;rounded=0;orthogonalLoop=1;jettySize=auto;html=1;entryX=1;entryY=0.5;entryDx=0;entryDy=0;fillColor=#d5e8d4;strokeColor=#82b366;strokeWidth=8;jumpStyle=arc;endArrow=none;endFill=0;" edge="1" parent="1" source="Lw8miHaZWjdqbxg_3rgK-135" target="Lw8miHaZWjdqbxg_3rgK-62">
          <mxGeometry relative="1" as="geometry">
            <Array as="points">
              <mxPoint x="2350" y="1140" />
            </Array>
          </mxGeometry>
        </mxCell>
        <mxCell id="Lw8miHaZWjdqbxg_3rgK-135" value="Менеджер" style="rounded=0;whiteSpace=wrap;html=1;" vertex="1" parent="1">
          <mxGeometry x="2290" y="1600" width="120" height="60" as="geometry" />
        </mxCell>
        <mxCell id="Lw8miHaZWjdqbxg_3rgK-138" value="" style="edgeStyle=orthogonalEdgeStyle;rounded=0;orthogonalLoop=1;jettySize=auto;html=1;" edge="1" parent="1" source="Lw8miHaZWjdqbxg_3rgK-136" target="Lw8miHaZWjdqbxg_3rgK-137">
          <mxGeometry relative="1" as="geometry" />
        </mxCell>
        <mxCell id="Lw8miHaZWjdqbxg_3rgK-139" value="has_one" style="edgeLabel;html=1;align=center;verticalAlign=middle;resizable=0;points=[];" vertex="1" connectable="0" parent="Lw8miHaZWjdqbxg_3rgK-138">
          <mxGeometry x="-0.0077" relative="1" as="geometry">
            <mxPoint as="offset" />
          </mxGeometry>
        </mxCell>
        <mxCell id="Lw8miHaZWjdqbxg_3rgK-192" value="" style="edgeStyle=orthogonalEdgeStyle;rounded=0;orthogonalLoop=1;jettySize=auto;entryX=1;entryY=0.5;entryDx=0;entryDy=0;strokeWidth=8;fillColor=#d5e8d4;strokeColor=#82b366;html=1;jumpStyle=arc;endArrow=none;endFill=0;" edge="1" parent="1" source="Lw8miHaZWjdqbxg_3rgK-136" target="Lw8miHaZWjdqbxg_3rgK-15">
          <mxGeometry relative="1" as="geometry">
            <Array as="points">
              <mxPoint x="2160" y="430" />
              <mxPoint x="1660" y="430" />
              <mxPoint x="1660" y="40" />
            </Array>
          </mxGeometry>
        </mxCell>
        <mxCell id="Lw8miHaZWjdqbxg_3rgK-210" style="edgeStyle=orthogonalEdgeStyle;rounded=0;orthogonalLoop=1;jettySize=auto;html=1;entryX=0.5;entryY=1;entryDx=0;entryDy=0;fillColor=#d5e8d4;strokeColor=#82b366;strokeWidth=8;endArrow=none;endFill=0;" edge="1" parent="1" source="Lw8miHaZWjdqbxg_3rgK-136" target="Lw8miHaZWjdqbxg_3rgK-208">
          <mxGeometry relative="1" as="geometry" />
        </mxCell>
        <mxCell id="Lw8miHaZWjdqbxg_3rgK-136" value="Клиент" style="rounded=0;whiteSpace=wrap;html=1;" vertex="1" parent="1">
          <mxGeometry x="2100" y="1565" width="120" height="60" as="geometry" />
        </mxCell>
        <mxCell id="Lw8miHaZWjdqbxg_3rgK-137" value="Информация по клиенту" style="rounded=0;whiteSpace=wrap;html=1;" vertex="1" parent="1">
          <mxGeometry x="2100" y="1740" width="120" height="60" as="geometry" />
        </mxCell>
        <mxCell id="Lw8miHaZWjdqbxg_3rgK-152" value="" style="edgeStyle=orthogonalEdgeStyle;rounded=0;orthogonalLoop=1;jettySize=auto;html=1;" edge="1" parent="1" source="Lw8miHaZWjdqbxg_3rgK-150" target="Lw8miHaZWjdqbxg_3rgK-151">
          <mxGeometry relative="1" as="geometry">
            <Array as="points">
              <mxPoint x="1910" y="1792" />
              <mxPoint x="2000" y="1792" />
            </Array>
          </mxGeometry>
        </mxCell>
        <mxCell id="Lw8miHaZWjdqbxg_3rgK-167" value="has_one" style="edgeLabel;html=1;align=center;verticalAlign=middle;resizable=0;points=[];" vertex="1" connectable="0" parent="Lw8miHaZWjdqbxg_3rgK-152">
          <mxGeometry x="-0.1758" y="2" relative="1" as="geometry">
            <mxPoint x="19" as="offset" />
          </mxGeometry>
        </mxCell>
        <mxCell id="Lw8miHaZWjdqbxg_3rgK-154" value="" style="edgeStyle=orthogonalEdgeStyle;rounded=0;orthogonalLoop=1;jettySize=auto;html=1;" edge="1" parent="1" source="Lw8miHaZWjdqbxg_3rgK-150" target="Lw8miHaZWjdqbxg_3rgK-153">
          <mxGeometry relative="1" as="geometry">
            <Array as="points">
              <mxPoint x="1880" y="1790" />
              <mxPoint x="1800" y="1790" />
            </Array>
          </mxGeometry>
        </mxCell>
        <mxCell id="Lw8miHaZWjdqbxg_3rgK-166" value="has_one" style="edgeLabel;html=1;align=center;verticalAlign=middle;resizable=0;points=[];" vertex="1" connectable="0" parent="Lw8miHaZWjdqbxg_3rgK-154">
          <mxGeometry x="0.1067" y="2" relative="1" as="geometry">
            <mxPoint x="18" y="-2" as="offset" />
          </mxGeometry>
        </mxCell>
        <mxCell id="Lw8miHaZWjdqbxg_3rgK-150" value="Воркер" style="rounded=0;whiteSpace=wrap;html=1;" vertex="1" parent="1">
          <mxGeometry x="1830" y="1700" width="120" height="60" as="geometry" />
        </mxCell>
        <mxCell id="Lw8miHaZWjdqbxg_3rgK-151" value="Информация по воркеру" style="rounded=0;whiteSpace=wrap;html=1;" vertex="1" parent="1">
          <mxGeometry x="1940" y="1840" width="120" height="60" as="geometry" />
        </mxCell>
        <mxCell id="Lw8miHaZWjdqbxg_3rgK-153" value="Характеристики воркера" style="rounded=0;whiteSpace=wrap;html=1;" vertex="1" parent="1">
          <mxGeometry x="1740" y="1840" width="120" height="60" as="geometry" />
        </mxCell>
        <mxCell id="Lw8miHaZWjdqbxg_3rgK-160" value="" style="edgeStyle=orthogonalEdgeStyle;rounded=0;orthogonalLoop=1;jettySize=auto;html=1;" edge="1" parent="1" source="Lw8miHaZWjdqbxg_3rgK-157" target="Lw8miHaZWjdqbxg_3rgK-75">
          <mxGeometry relative="1" as="geometry" />
        </mxCell>
        <mxCell id="Lw8miHaZWjdqbxg_3rgK-161" value="has_one" style="edgeLabel;html=1;align=center;verticalAlign=middle;resizable=0;points=[];" vertex="1" connectable="0" parent="Lw8miHaZWjdqbxg_3rgK-160">
          <mxGeometry x="-0.01" relative="1" as="geometry">
            <mxPoint as="offset" />
          </mxGeometry>
        </mxCell>
        <mxCell id="Lw8miHaZWjdqbxg_3rgK-157" value="Ответы на&lt;br&gt;тест" style="rounded=0;whiteSpace=wrap;html=1;" vertex="1" parent="1">
          <mxGeometry x="2280" y="2470" width="120" height="60" as="geometry" />
        </mxCell>
        <mxCell id="Lw8miHaZWjdqbxg_3rgK-162" value="Воркер" style="rounded=0;whiteSpace=wrap;html=1;" vertex="1" parent="1">
          <mxGeometry x="1186.25" y="1870" width="120" height="60" as="geometry" />
        </mxCell>
        <mxCell id="Lw8miHaZWjdqbxg_3rgK-163" value="Клиент" style="rounded=0;whiteSpace=wrap;html=1;" vertex="1" parent="1">
          <mxGeometry x="1186.25" y="1560" width="120" height="60" as="geometry" />
        </mxCell>
        <mxCell id="Lw8miHaZWjdqbxg_3rgK-201" value="" style="edgeStyle=orthogonalEdgeStyle;rounded=0;orthogonalLoop=1;jettySize=auto;html=1;" edge="1" parent="1" source="Lw8miHaZWjdqbxg_3rgK-172" target="Lw8miHaZWjdqbxg_3rgK-200">
          <mxGeometry relative="1" as="geometry" />
        </mxCell>
        <mxCell id="Lw8miHaZWjdqbxg_3rgK-202" value="has_one" style="edgeLabel;html=1;align=center;verticalAlign=middle;resizable=0;points=[];" vertex="1" connectable="0" parent="Lw8miHaZWjdqbxg_3rgK-201">
          <mxGeometry x="-0.2777" y="1" relative="1" as="geometry">
            <mxPoint x="7" y="1" as="offset" />
          </mxGeometry>
        </mxCell>
        <mxCell id="Lw8miHaZWjdqbxg_3rgK-172" value="Расходник" style="rounded=0;whiteSpace=wrap;html=1;" vertex="1" parent="1">
          <mxGeometry x="700" y="-210" width="120" height="60" as="geometry" />
        </mxCell>
        <mxCell id="Lw8miHaZWjdqbxg_3rgK-173" value="Расходник" style="rounded=0;whiteSpace=wrap;html=1;" vertex="1" parent="1">
          <mxGeometry x="1450" y="-913" width="120" height="60" as="geometry" />
        </mxCell>
        <mxCell id="Lw8miHaZWjdqbxg_3rgK-174" value="&lt;font style=&quot;font-size: 72px;&quot;&gt;Legend&lt;/font&gt;" style="text;html=1;align=center;verticalAlign=middle;resizable=0;points=[];autosize=1;strokeColor=none;fillColor=none;" vertex="1" parent="1">
          <mxGeometry x="1420" y="-1020" width="260" height="100" as="geometry" />
        </mxCell>
        <mxCell id="Lw8miHaZWjdqbxg_3rgK-176" value="Расходник" style="rounded=0;whiteSpace=wrap;html=1;fillColor=#d5e8d4;strokeColor=#82b366;" vertex="1" parent="1">
          <mxGeometry x="1450" y="-833" width="120" height="60" as="geometry" />
        </mxCell>
        <mxCell id="Lw8miHaZWjdqbxg_3rgK-178" value="&lt;font style=&quot;font-size: 24px;&quot;&gt;Data Owner&lt;/font&gt;" style="text;html=1;align=center;verticalAlign=middle;resizable=0;points=[];autosize=1;strokeColor=none;fillColor=none;" vertex="1" parent="1">
          <mxGeometry x="1590" y="-903" width="150" height="40" as="geometry" />
        </mxCell>
        <mxCell id="Lw8miHaZWjdqbxg_3rgK-179" value="&lt;font style=&quot;font-size: 24px;&quot;&gt;Consumer&lt;/font&gt;" style="text;html=1;align=center;verticalAlign=middle;resizable=0;points=[];autosize=1;strokeColor=none;fillColor=none;" vertex="1" parent="1">
          <mxGeometry x="1600" y="-823" width="130" height="40" as="geometry" />
        </mxCell>
        <mxCell id="Lw8miHaZWjdqbxg_3rgK-181" style="edgeStyle=orthogonalEdgeStyle;rounded=0;orthogonalLoop=1;jettySize=auto;html=1;fillColor=#d5e8d4;strokeColor=#82b366;strokeWidth=8;endArrow=none;endFill=0;" edge="1" parent="1">
          <mxGeometry relative="1" as="geometry">
            <mxPoint x="1510" y="-643" as="sourcePoint" />
            <mxPoint x="1510" y="-753" as="targetPoint" />
          </mxGeometry>
        </mxCell>
        <mxCell id="Lw8miHaZWjdqbxg_3rgK-182" value="&lt;span style=&quot;font-size: 24px;&quot;&gt;Стрим (копия данных от Owner&#39;а)&lt;/span&gt;" style="text;html=1;align=center;verticalAlign=middle;resizable=0;points=[];autosize=1;strokeColor=none;fillColor=none;" vertex="1" parent="1">
          <mxGeometry x="1530" y="-723" width="400" height="40" as="geometry" />
        </mxCell>
        <mxCell id="Lw8miHaZWjdqbxg_3rgK-183" value="&lt;div style=&quot;text-align: left;&quot;&gt;&lt;font color=&quot;#000000&quot;&gt;&lt;span style=&quot;font-size: 12px;&quot;&gt;qwerty&lt;/span&gt;&lt;/font&gt;&lt;/div&gt;" style="shape=note;strokeWidth=2;fontSize=14;size=20;whiteSpace=wrap;html=1;fillColor=#fff2cc;strokeColor=#d6b656;fontColor=#666600;" vertex="1" parent="1">
          <mxGeometry x="1443.75" y="-623" width="132.5" height="90" as="geometry" />
        </mxCell>
        <mxCell id="Lw8miHaZWjdqbxg_3rgK-184" value="&lt;span style=&quot;font-size: 24px;&quot;&gt;Комментарий и данные&lt;/span&gt;" style="text;html=1;align=center;verticalAlign=middle;resizable=0;points=[];autosize=1;strokeColor=none;fillColor=none;" vertex="1" parent="1">
          <mxGeometry x="1600" y="-603" width="290" height="40" as="geometry" />
        </mxCell>
        <mxCell id="Lw8miHaZWjdqbxg_3rgK-197" value="&lt;div style=&quot;text-align: left;&quot;&gt;&lt;font color=&quot;#000000&quot;&gt;&lt;span style=&quot;font-size: 12px;&quot;&gt;Нужен только тип расходника&lt;/span&gt;&lt;/font&gt;&lt;/div&gt;" style="shape=note;strokeWidth=2;fontSize=14;size=20;whiteSpace=wrap;html=1;fillColor=#fff2cc;strokeColor=#d6b656;fontColor=#666600;" vertex="1" parent="1">
          <mxGeometry x="900" y="390" width="132.5" height="90" as="geometry" />
        </mxCell>
        <mxCell id="Lw8miHaZWjdqbxg_3rgK-200" value="Тип расходника" style="rounded=0;whiteSpace=wrap;html=1;" vertex="1" parent="1">
          <mxGeometry x="885" y="-210" width="120" height="60" as="geometry" />
        </mxCell>
        <mxCell id="Lw8miHaZWjdqbxg_3rgK-220" style="edgeStyle=orthogonalEdgeStyle;rounded=0;orthogonalLoop=1;jettySize=auto;html=1;entryX=0.5;entryY=1;entryDx=0;entryDy=0;fillColor=#d5e8d4;strokeColor=#82b366;strokeWidth=8;endArrow=none;endFill=0;jumpStyle=arc;" edge="1" parent="1" source="Lw8miHaZWjdqbxg_3rgK-203" target="Lw8miHaZWjdqbxg_3rgK-217">
          <mxGeometry relative="1" as="geometry" />
        </mxCell>
        <mxCell id="Lw8miHaZWjdqbxg_3rgK-203" value="Статус" style="rounded=0;whiteSpace=wrap;html=1;" vertex="1" parent="1">
          <mxGeometry x="1040" y="810" width="110" height="50" as="geometry" />
        </mxCell>
        <mxCell id="Lw8miHaZWjdqbxg_3rgK-209" style="edgeStyle=orthogonalEdgeStyle;rounded=0;orthogonalLoop=1;jettySize=auto;html=1;entryX=0.5;entryY=1;entryDx=0;entryDy=0;" edge="1" parent="1" source="Lw8miHaZWjdqbxg_3rgK-208" target="Lw8miHaZWjdqbxg_3rgK-63">
          <mxGeometry relative="1" as="geometry" />
        </mxCell>
        <mxCell id="Lw8miHaZWjdqbxg_3rgK-211" value="has_one" style="edgeLabel;html=1;align=center;verticalAlign=middle;resizable=0;points=[];" vertex="1" connectable="0" parent="Lw8miHaZWjdqbxg_3rgK-209">
          <mxGeometry x="0.0468" y="-1" relative="1" as="geometry">
            <mxPoint x="-1" as="offset" />
          </mxGeometry>
        </mxCell>
        <mxCell id="Lw8miHaZWjdqbxg_3rgK-208" value="Клиент" style="rounded=0;whiteSpace=wrap;html=1;fillColor=#d5e8d4;strokeColor=#82b366;" vertex="1" parent="1">
          <mxGeometry x="1620" y="1200" width="100" height="60" as="geometry" />
        </mxCell>
        <mxCell id="Lw8miHaZWjdqbxg_3rgK-218" value="" style="edgeStyle=orthogonalEdgeStyle;rounded=0;orthogonalLoop=1;jettySize=auto;html=1;" edge="1" parent="1" source="Lw8miHaZWjdqbxg_3rgK-212" target="Lw8miHaZWjdqbxg_3rgK-217">
          <mxGeometry relative="1" as="geometry" />
        </mxCell>
        <mxCell id="Lw8miHaZWjdqbxg_3rgK-219" value="has_one" style="edgeLabel;html=1;align=center;verticalAlign=middle;resizable=0;points=[];" vertex="1" connectable="0" parent="Lw8miHaZWjdqbxg_3rgK-218">
          <mxGeometry x="0.0212" y="-1" relative="1" as="geometry">
            <mxPoint y="-1" as="offset" />
          </mxGeometry>
        </mxCell>
        <mxCell id="Lw8miHaZWjdqbxg_3rgK-212" value="Условие" style="rounded=0;whiteSpace=wrap;html=1;" vertex="1" parent="1">
          <mxGeometry x="2320" y="20" width="120" height="60" as="geometry" />
        </mxCell>
        <mxCell id="Lw8miHaZWjdqbxg_3rgK-217" value="Тип статуса заказа" style="rounded=0;whiteSpace=wrap;html=1;fillColor=#d5e8d4;strokeColor=#82b366;" vertex="1" parent="1">
          <mxGeometry x="2320" y="160" width="120" height="70" as="geometry" />
        </mxCell>
        <mxCell id="Lw8miHaZWjdqbxg_3rgK-221" value="Фотография до выполнения" style="rounded=0;whiteSpace=wrap;html=1;" vertex="1" parent="1">
          <mxGeometry x="440" y="950" width="110" height="60" as="geometry" />
        </mxCell>
        <mxCell id="Lw8miHaZWjdqbxg_3rgK-222" value="Фотография отчета после выполнения" style="rounded=0;whiteSpace=wrap;html=1;" vertex="1" parent="1">
          <mxGeometry x="895" y="870" width="110" height="60" as="geometry" />
        </mxCell>
        <mxCell id="Lw8miHaZWjdqbxg_3rgK-228" value="&lt;span style=&quot;font-size: 8px;&quot;&gt;TODO: выплата менеджером&lt;/span&gt;" style="shape=note;strokeWidth=2;fontSize=14;size=20;whiteSpace=wrap;html=1;fillColor=#fff2cc;strokeColor=#d6b656;fontColor=#666600;" vertex="1" parent="1">
          <mxGeometry x="730" y="1680" width="90" height="50" as="geometry" />
        </mxCell>
        <mxCell id="Lw8miHaZWjdqbxg_3rgK-231" value="&lt;span style=&quot;font-size: 8px;&quot;&gt;Контакты&lt;/span&gt;" style="shape=note;strokeWidth=2;fontSize=14;size=20;whiteSpace=wrap;html=1;fillColor=#fff2cc;strokeColor=#d6b656;fontColor=#666600;" vertex="1" parent="1">
          <mxGeometry x="1710" y="1210" width="90" height="40" as="geometry" />
        </mxCell>
        <mxCell id="Lw8miHaZWjdqbxg_3rgK-232" value="&lt;span style=&quot;font-size: 8px;&quot;&gt;Проверяющий&lt;br&gt;заказы&lt;/span&gt;" style="shape=note;strokeWidth=2;fontSize=14;size=20;whiteSpace=wrap;html=1;fillColor=#fff2cc;strokeColor=#d6b656;fontColor=#666600;" vertex="1" parent="1">
          <mxGeometry x="1855" y="1070" width="90" height="40" as="geometry" />
        </mxCell>
      </root>
    </mxGraphModel>
  </diagram>
</mxfile>
